<svg width="298" height="117" viewBox="0 0 298 117" fill="none" xmlns="http://www.w3.org/2000/svg">
<path d="M298 100.627C298 65.353 283.988 31.524 259.045 6.58162C234.103 -18.3607 200.274 35.6267 165 35.6267C129.726 35.6267 95.8971 -18.3607 70.9548 6.5816C46.0125 31.5239 32 65.353 32 100.627L165 100.627H298Z" fill="#2ECC71"/>
<path d="M266 117C266 81.7263 251.988 47.8972 227.045 22.9548C202.103 -1.98749 168.274 52 133 52C97.7262 52 63.8971 -1.9875 38.9548 22.9548C14.0125 47.8972 5.32619e-06 81.7262 0 117L133 117H266Z" fill="#167C41"/>
</svg>
