<svg width="288" height="341" viewBox="0 0 288 341" fill="none" xmlns="http://www.w3.org/2000/svg">
  <path d="M-3.06887e-06 309.811C18.7471 323.51 40.3084 332.952 63.3871 337.568C86.4659 342.184 110.585 341.879 134.294 336.671C158.004 331.463 180.813 321.461 201.35 307.265C221.888 293.068 239.729 274.972 253.801 254.064C267.873 233.156 277.885 209.869 283.235 185.602C288.585 161.335 289.162 136.591 284.932 112.857C280.701 89.1231 271.751 66.8903 258.619 47.4956C245.487 28.1009 228.445 11.9452 208.517 -2.35105e-05L162.915 73.7605C173.592 80.1607 182.723 88.817 189.759 99.2086C196.795 109.6 201.591 121.513 203.858 134.229C206.124 146.946 205.815 160.204 202.948 173.206C200.082 186.208 194.718 198.685 187.178 209.888C179.638 221.09 170.079 230.786 159.075 238.392C148.071 245.999 135.85 251.358 123.146 254.148C110.443 256.939 97.52 257.102 85.1545 254.629C72.7889 252.155 61.2364 247.097 51.1918 239.757L-3.06887e-06 309.811Z" fill="#167C41"/>
</svg>
